Coordinates
version=1
nRows=24
nColumns=50
inDegrees=no

Units are S.I. units (second, meters, Newtons, ...)
If the header above contains a line with 'inDegrees', this indicates whether rotational values are in degrees (yes) or radians (no).

endheader
time	pelvis_tilt	pelvis_list	pelvis_rotation	pelvis_tx	pelvis_ty	pelvis_tz	hip_flexion_r	hip_adduction_r	hip_rotation_r	knee_angle_r	ankle_angle_r	subtalar_angle_r	mtp_angle_r	hip_flexion_l	hip_adduction_l	hip_rotation_l	knee_angle_l	ankle_angle_l	subtalar_angle_l	mtp_angle_l	lumbar_bending	lumbar_extension	lumbar_twist	thorax_bending	thorax_extension	thorax_twist	head_bending	head_extension	head_twist	scapula_abduction_r	scapula_elevation_r	scapula_upward_rot_r	shoulder_r_x	shoulder_r_y	shoulder_r_z	elbow_flexion_r	pro_sup_r	wrist_flexion_r	wrist_deviation_r	scapula_abduction_l	scapula_elevation_l	scapula_upward_rot_l	shoulder_l_x	shoulder_l_y	shoulder_l_z	elbow_flexion_l	pro_sup_l	wrist_flexion_l	wrist_deviation_l
0.372918	0.0407609	-0.0371887	-1.76623	-0.0650166	0.976318	0.799339	0.239743	-0.0722842	-0.268914	0.441877	0.0797972	0.0855009	-0.0909117	-0.127838	0.00705035	-0.0574034	0.314961	0.209696	0.051054	-0.0672543	0.0276208	-0.722277	-0.0292925	0.000734588	0.242405	-0.116541	0.0730724	-0.161785	-0.0360359	-1.16243	-0.173398	0.0164447	-0.425124	0.0728749	-0.403012	0.539801	0.152887	0.25612	-0.0891505	-1.09027	-0.0605587	0.101825	0.541318	-0.0596805	0.0734579	0.882526	0.177934	0.200333	-0.0698108
0.381205	0.0474413	-0.0320381	-1.76794	-0.0719568	0.976435	0.807926	0.230091	-0.0760775	-0.26916	0.442936	0.0831176	0.0854176	-0.0907418	-0.116869	0.00618072	-0.0591866	0.320777	0.206271	0.0467483	-0.0676197	0.0273344	-0.724478	-0.0299751	0.00108652	0.241719	-0.11209	0.07035	-0.166161	-0.0327895	-1.16181	-0.172889	0.0180131	-0.424348	0.0741631	-0.399536	0.543901	0.15106	0.254298	-0.0890254	-1.09062	-0.0612353	0.101647	0.538533	-0.0596129	0.0674741	0.889259	0.176607	0.199948	-0.0697515
0.389492	0.054043	-0.0286919	-1.76914	-0.0782897	0.976557	0.815226	0.220226	-0.0803673	-0.269529	0.444463	0.0861199	0.0851015	-0.0907575	-0.107113	0.00552899	-0.0606888	0.325899	0.202506	0.0423012	-0.0679145	0.0274202	-0.725793	-0.0306499	0.00167677	0.240688	-0.107939	0.0672349	-0.170832	-0.0290893	-1.16128	-0.172246	0.01961	-0.423986	0.0751109	-0.396888	0.547594	0.149074	0.252552	-0.0888083	-1.09107	-0.0618755	0.10138	0.535251	-0.0602368	0.0606663	0.896146	0.175242	0.199713	-0.0698018
0.397779	0.0605213	-0.0270982	-1.77013	-0.084038	0.976707	0.821312	0.210273	-0.084938	-0.269973	0.446155	0.0887765	0.0846127	-0.0909318	-0.0987308	0.00511555	-0.0619775	0.330217	0.19845	0.0378136	-0.0681464	0.0278299	-0.726232	-0.0313117	0.00247603	0.239362	-0.104216	0.0638667	-0.175536	-0.0250962	-1.16081	-0.171495	0.0211854	-0.424049	0.0757056	-0.39508	0.55077	0.147023	0.250942	-0.0885038	-1.09163	-0.0624624	0.100979	0.531556	-0.0617341	0.0534574	0.903023	0.173915	0.199652	-0.0699735
0.406066	0.0668371	-0.0271316	-1.77124	-0.089238	0.976904	0.82626	0.200331	-0.0895834	-0.270417	0.447764	0.0910856	0.084016	-0.0912379	-0.0917538	0.00496264	-0.0631329	0.333664	0.194144	0.0333794	-0.0683351	0.0284645	-0.725852	-0.0319764	0.00343022	0.237796	-0.101011	0.0603999	-0.180007	-0.0209989	-1.1604	-0.17067	0.0226846	-0.424503	0.075981	-0.394083	0.553349	0.145005	0.249519	-0.0881205	-1.09226	-0.0629826	0.100381	0.527531	-0.0642718	0.0462717	0.909694	0.172696	0.19979	-0.0702745
0.414353	0.0729485	-0.0285999	-1.77283	-0.093931	0.977163	0.830153	0.190504	-0.0941202	-0.27078	0.449099	0.093063	0.0833794	-0.0916543	-0.0861071	0.00508622	-0.0642385	0.336213	0.189639	0.0290841	-0.068485	0.029192	-0.724769	-0.0326618	0.00449292	0.236063	-0.0984029	0.0569791	-0.184012	-0.016987	-1.16	-0.1698	0.0240534	-0.425269	0.0760102	-0.393821	0.555284	0.143112	0.248329	-0.0876721	-1.09294	-0.0634302	0.0995164	0.523259	-0.0679851	0.039511	0.915963	0.171641	0.200144	-0.0707064
0.42264	0.0788097	-0.0312513	-1.77528	-0.0981571	0.977488	0.833084	0.180909	-0.0983971	-0.270975	0.450035	0.0947377	0.0827683	-0.092159	-0.0816235	0.00549368	-0.0653741	0.337884	0.184996	0.0250087	-0.0686059	0.0298683	-0.723149	-0.0333948	0.00561831	0.234241	-0.0964249	0.0537293	-0.187371	-0.0132348	-1.15958	-0.168916	0.0252402	-0.426233	0.0758971	-0.394178	0.556558	0.141425	0.24741	-0.0871756	-1.09363	-0.0638051	0.0983147	0.518825	-0.0729558	0.0335383	0.921644	0.170788	0.200724	-0.071264
0.430927	0.0843778	-0.0347934	-1.77887	-0.101952	0.977867	0.835152	0.171678	-0.102302	-0.27093	0.450505	0.0961466	0.0822441	-0.0927289	-0.078065	0.00618634	-0.0666044	0.338749	0.180297	0.0212305	-0.0687114	0.0303596	-0.721194	-0.0342041	0.00676287	0.23241	-0.0950673	0.0507487	-0.189971	-0.00989213	-1.15912	-0.168043	0.0261972	-0.427259	0.0757617	-0.39501	0.55718	0.140003	0.246786	-0.0866508	-1.0943	-0.0641131	0.0967059	0.514318	-0.0791967	0.0286419	0.926567	0.170161	0.201536	-0.0719351
0.439214	0.0896192	-0.0389195	-1.78384	-0.105348	0.978278	0.836463	0.162945	-0.105764	-0.270596	0.450485	0.0973284	0.0818596	-0.0933402	-0.0751631	0.00715802	-0.0679675	0.338927	0.175634	0.0178191	-0.0688169	0.0305685	-0.719121	-0.0351098	0.00788211	0.230633	-0.0942869	0.048103	-0.191779	-0.00706403	-1.15858	-0.167206	0.0268832	-0.428217	0.0757151	-0.396169	0.557184	0.138876	0.246465	-0.0861175	-1.09493	-0.0643614	0.0946372	0.509825	-0.0866407	0.0250065	0.930599	0.169766	0.202577	-0.0727019
0.447501	0.0945109	-0.0433378	-1.79028	-0.108372	0.97869	0.83712	0.15484	-0.108758	-0.269962	0.450002	0.098318	0.0816496	-0.0939694	-0.0726674	0.00839078	-0.0694682	0.338568	0.171104	0.0148312	-0.0689377	0.0304528	-0.717117	-0.036118	0.00893024	0.228956	-0.0940157	0.045829	-0.192833	-0.0048041	-1.15798	-0.166423	0.0272726	-0.429009	0.0758375	-0.397522	0.556623	0.138046	0.246436	-0.085593	-1.09548	-0.0645567	0.0920929	0.505425	-0.0951335	0.0226962	0.933656	0.169591	0.203834	-0.0735423
0.455788	0.0990356	-0.0477888	-1.79819	-0.111048	0.979072	0.837225	0.14749	-0.111297	-0.269055	0.449129	0.0991451	0.0816236	-0.0945941	-0.0703756	0.00985424	-0.0710741	0.337826	0.166805	0.0123091	-0.0690869	0.03003	-0.715325	-0.0372194	0.0098668	0.227398	-0.0941652	0.0439296	-0.193236	-0.00310865	-1.15732	-0.16571	0.0273634	-0.429577	0.0761665	-0.398959	0.555577	0.137481	0.246665	-0.0850916	-1.09598	-0.0647052	0.0891015	0.501193	-0.104432	0.0216547	0.935724	0.169608	0.205278	-0.0744308
0.464075	0.103178	-0.0520559	-1.80741	-0.113395	0.979393	0.836877	0.141005	-0.11343	-0.267938	0.447979	0.0998307	0.0817637	-0.0952021	-0.0681515	0.0115099	-0.07272	0.336841	0.16283	0.0102812	-0.069259	0.0293644	-0.713844	-0.0383777	0.0106832	0.225972	-0.0946517	0.0423653	-0.193138	-0.00191907	-1.15662	-0.16507	0.0271806	-0.42991	0.0766943	-0.400401	0.554151	0.137131	0.247104	-0.0846254	-1.09643	-0.0648149	0.085723	0.497204	-0.114222	0.0217246	0.936854	0.169767	0.206863	-0.0753387
0.472362	0.106926	-0.0559724	-1.81769	-0.115432	0.979634	0.836172	0.135463	-0.115222	-0.266702	0.44669	0.100389	0.0820336	-0.0957836	-0.0659189	0.0133214	-0.0743101	0.33573	0.159264	0.00876038	-0.0694477	0.0285594	-0.712719	-0.0395489	0.0113807	0.224683	-0.0953786	0.0410687	-0.192728	-0.00112947	-1.15591	-0.164501	0.026766	-0.430033	0.0773776	-0.401808	0.552471	0.136926	0.247692	-0.084204	-1.09687	-0.0648922	0.0820569	0.493535	-0.124129	0.0226627	0.937158	0.170006	0.208522	-0.0762355
0.480649	0.110273	-0.0594313	-1.8287	-0.117175	0.979786	0.835202	0.130875	-0.116748	-0.265443	0.445406	0.100834	0.0823871	-0.0963298	-0.0636464	0.0152651	-0.0757317	0.334598	0.15617	0.00773843	-0.0696489	0.0277386	-0.711935	-0.0406888	0.011965	0.223519	-0.0962399	0.0399571	-0.192206	-0.000601203	-1.15525	-0.163995	0.0261774	-0.430005	0.0781444	-0.403172	0.550678	0.136782	0.248365	-0.0838332	-1.09734	-0.0649413	0.0782392	0.490253	-0.133748	0.0241616	0.936795	0.170256	0.210186	-0.0770887
0.488936	0.113216	-0.0623836	-1.84006	-0.118647	0.979854	0.834052	0.127179	-0.118069	-0.264254	0.444253	0.101183	0.0827771	-0.0968318	-0.0613326	0.0173338	-0.0768775	0.333541	0.153583	0.00718459	-0.0698635	0.0270266	-0.711423	-0.0417588	0.0124382	0.222454	-0.0971271	0.0389532	-0.191758	-0.000194317	-1.15468	-0.163545	0.0254826	-0.429905	0.0789093	-0.404502	0.548911	0.13662	0.249059	-0.0835147	-1.09788	-0.0649628	0.0744325	0.487413	-0.142693	0.0258863	0.935944	0.170457	0.211785	-0.0778664
0.497223	0.115752	-0.0648242	-1.85141	-0.119868	0.979857	0.832794	0.124252	-0.119224	-0.263209	0.443312	0.101456	0.0831655	-0.0972815	-0.0589997	0.0195239	-0.0776681	0.332645	0.151505	0.00705314	-0.0700931	0.0265215	-0.71108	-0.0427259	0.0128064	0.221453	-0.0979427	0.0379966	-0.191524	0.000202061	-1.15425	-0.163144	0.0247581	-0.429821	0.0795846	-0.405816	0.547301	0.136375	0.249717	-0.0832474	-1.09852	-0.0649568	0.0708024	0.485056	-0.150636	0.027524	0.93478	0.170552	0.213257	-0.0785391
0.50551	0.117876	-0.0667715	-1.86241	-0.12086	0.97982	0.831489	0.121943	-0.120219	-0.262362	0.442603	0.101679	0.0835322	-0.0976696	-0.0566857	0.021821	-0.0780631	0.331966	0.149909	0.00729023	-0.0703402	0.0262857	-0.71079	-0.0435656	0.0130764	0.220485	-0.0986031	0.0370518	-0.191594	0.000661683	-1.15399	-0.162785	0.024079	-0.429835	0.0800933	-0.407125	0.54596	0.136009	0.250293	-0.0830284	-1.0993	-0.0649232	0.0674997	0.483211	-0.157331	0.0288293	0.933462	0.170502	0.21455	-0.0790839
0.513797	0.119581	-0.068248	-1.87276	-0.121648	0.979771	0.830186	0.120092	-0.12104	-0.261749	0.442091	0.101872	0.0838761	-0.0979906	-0.0544394	0.0241947	-0.078058	0.331517	0.148752	0.00784011	-0.0705951	0.0263421	-0.71046	-0.044249	0.0132695	0.219531	-0.0990607	0.0360932	-0.192008	0.0012428	-1.15391	-0.162461	0.0235168	-0.43001	0.0803744	-0.408429	0.544973	0.135506	0.250756	-0.0828554	-1.10022	-0.0648644	0.0646437	0.481899	-0.162629	0.0296489	0.932122	0.17028	0.215621	-0.0794861
0.522085	0.12086	-0.06927	-1.88224	-0.122253	0.979734	0.828925	0.118544	-0.121661	-0.261385	0.441705	0.102057	0.0842067	-0.098238	-0.0523083	0.0266021	-0.0776829	0.331269	0.147978	0.00864849	-0.0708493	0.0266718	-0.71002	-0.0447652	0.0134021	0.218587	-0.0992828	0.0351113	-0.192752	0.00198206	-1.154	-0.162163	0.0231298	-0.430378	0.0803962	-0.409712	0.544391	0.134872	0.251089	-0.0827258	-1.1013	-0.0647831	0.0623163	0.481132	-0.166484	0.0299341	0.930858	0.169879	0.21644	-0.0797401
0.530372	0.121713	-0.0698487	-1.89063	-0.122696	0.979729	0.82773	0.117158	-0.122058	-0.261257	0.441361	0.102253	0.084535	-0.0984071	-0.0503294	0.02899	-0.0769929	0.331168	0.147522	0.00966394	-0.0710959	0.0272149	-0.709434	-0.0451214	0.0134864	0.217652	-0.099255	0.0341085	-0.19376	0.00289348	-1.15426	-0.161887	0.0229584	-0.430938	0.0801594	-0.410953	0.544215	0.134134	0.251291	-0.0826363	-1.10249	-0.0646844	0.0605591	0.480909	-0.168939	0.029736	0.929729	0.169302	0.216991	-0.0798486
0.538659	0.12216	-0.0699906	-1.89776	-0.122994	0.979766	0.82661	0.11582	-0.122212	-0.261333	0.44098	0.102479	0.0848682	-0.0984951	-0.0485144	0.0313013	-0.0760575	0.331164	0.147321	0.0108379	-0.0713321	0.027883	-0.708707	-0.0453377	0.0135255	0.216736	-0.0989782	0.0330967	-0.194936	0.00396804	-1.15468	-0.161629	0.0230205	-0.431652	0.0796964	-0.412125	0.544404	0.133335	0.251375	-0.0825827	-1.10378	-0.0645743	0.0593725	0.481212	-0.170114	0.0291776	0.928763	0.168568	0.217272	-0.079822
0.546946	0.122234	-0.0696932	-1.9035	-0.123167	0.979848	0.825557	0.114476	-0.12211	-0.261569	0.440491	0.102747	0.0852126	-0.0984998	-0.046842	0.0334841	-0.0749462	0.331238	0.147319	0.0121305	-0.0715611	0.0285882	-0.707882	-0.0454371	0.0135127	0.215849	-0.0984598	0.0320837	-0.196193	0.00519679	-1.15522	-0.161387	0.0233085	-0.432461	0.079064	-0.413195	0.544901	0.132515	0.251359	-0.0825619	-1.1051	-0.0644578	0.0587174	0.481995	-0.170186	0.0284078	0.927974	0.167699	0.217293	-0.0796798
0.555233	0.121975	-0.0689453	-1.90775	-0.123232	0.97997	0.824544	0.11315	-0.121737	-0.261911	0.439834	0.103059	0.0855785	-0.0984193	-0.0452721	0.0354884	-0.0737239	0.331404	0.147476	0.013513	-0.071792	0.0292712	-0.707037	-0.045437	0.0134341	0.215002	-0.097712	0.0310766	-0.197471	0.00656127	-1.15585	-0.16116	0.0237918	-0.433287	0.0783371	-0.414121	0.545654	0.131706	0.251258	-0.0825747	-1.1064	-0.0643377	0.0585217	0.483176	-0.169364	0.0275534	0.927365	0.166729	0.217082	-0.0794517
0.56352	0.121422	-0.067732	-1.91047	-0.123204	0.98012	0.82352	0.111953	-0.121085	-0.262302	0.438957	0.103404	0.0859808	-0.0982572	-0.0437626	0.0372597	-0.0724452	0.331688	0.147771	0.0149677	-0.0720271	0.029911	-0.70627	-0.0453325	0.0132887	0.214207	-0.0967678	0.0300749	-0.19873	0.00802951	-1.15654	-0.160947	0.0244325	-0.434052	0.0775972	-0.41484	0.546629	0.130932	0.251081	-0.0826286	-1.10765	-0.0642171	0.0586853	0.48464	-0.167878	0.0266856	0.92692	0.165701	0.216683	-0.0791762
